<?xml version="1.0" encoding="utf-8"?>
<!-- Generator: Adobe Illustrator 19.2.1, SVG Export Plug-In . SVG Version: 6.00 Build 0)  -->
<svg version="1.1" id="Ebene_1" xmlns="http://www.w3.org/2000/svg" xmlns:xlink="http://www.w3.org/1999/xlink" x="0px" y="0px"
	 viewBox="0 0 69.736 88.738" style="enable-background:new 0 0 69.736 88.738;" xml:space="preserve">
<style type="text/css">
	.st0{fill-rule:evenodd;clip-rule:evenodd;fill:#FFFFFF;}
	.st1{fill:#FFFFFF;}
</style>
<g>
	<path class="st0" d="M25.171,62.295c3.227,2.48,6.868,3.973,10.784,4.882c3.217,0.746,6.488,1.032,9.778,0.845
		c7.62-0.432,14.503-2.707,19.795-8.504c1.318-1.443,2.258-3.231,3.361-4.866c0.41-0.753,0.621,0.139,0.681,0.664
		c0.93,8.182-2.239,20.475-13.409,28.071c-10.86,7.384-24.127,6.524-32.97,1.085c-0.451-0.277-0.409-0.671,0.047-0.57
		c1.035,0.229,2.078,0.46,3.13,0.639c5.636,0.963,11.218,0.661,16.73-0.848c6.267-1.717,11.698-4.788,15.861-9.884
		c1.265-1.549,2.315-3.219,3.122-5.038c0.285-0.644,0.095-1.235-0.246-0.871C55.672,74.466,47.932,78.05,39.01,79.188
		c-9.137,1.167-17.787-0.191-25.601-5.492c-0.238-0.161-1.007-0.195-1.155-0.046c-1.299,1.314-2.596,2.637-3.918,3.934
		c-0.287,0.282-0.675,0.547-1.058,0.628c-0.731,0.156-1.261-0.377-1.484-1.396c-0.592-2.703-1.161-5.41-1.755-8.111
		C2.724,62.721,1.399,56.74,0.078,50.758c-0.325-1.472,0.382-2.203,1.835-1.881c7.22,1.6,14.438,3.205,21.657,4.807
		c1.543,0.342,3.095,0.647,4.628,1.029c1.355,0.337,1.628,1.392,0.647,2.382c-1.262,1.274-2.535,2.536-3.816,3.811
		C24.794,61.141,24.885,62.076,25.171,62.295z"/>
	<path class="st0" d="M64.365,54.795c-0.385-3.184-1.298-6.212-2.778-9.08c-0.253-0.489-0.528-0.694-1.101-0.683
		c-1.892,0.034-3.503,0.016-5.291,0.016c-0.66,0-0.845,0.527-0.804,0.791c0.224,1.443,0.764,2.879,0.988,4.319
		c0.277,1.788,0.577,3.365,0.577,5.397c0,0.253,0.089,0.753,0.979,0.753c1.876,0,3.836,0,5.808,0c0.351,0,1.274,0.187-0.447,1.686
		c-0.993,0.865-1.436,1.17-3.349,1.17c-0.874,0-1.327,0.003-2.012,0.003c-0.985,0-1.146,0.588-1.169,0.867
		c-0.043,0.519-0.089,1.026-0.18,1.524c-0.052,0.288-0.295,0.646-0.549,0.773c-0.416,0.208-0.849,0.381-1.303,0.554
		c-0.337,0.129-0.987,0.357-0.987-0.501c0-0.797,0.106-1.567,0.159-2.349c0.018-0.262,0.025-0.789-0.826-0.789
		c-3.726,0-7.4,0-11.133,0c-0.753,0-0.774,0.526-0.774,0.789c0,1.339,0,2.676,0,4.057c0,0.734-0.62,0.772-0.92,0.732
		c-0.366-0.048-0.726-0.096-1.091-0.145c-0.237-0.031-0.718-0.4-0.718-1.013c0-1.196,0-2.394,0-3.632
		c0-0.268-0.08-0.808-0.694-0.808c-1.569,0-2.809,0-4.334,0c-0.713,0-0.67-0.41-0.582-0.611c0.25-0.57,0.493-1.124,0.747-1.702
		c0.079-0.182,0.301-0.554,1.103-0.554c0.978,0,2.006,0,3.066,0c0.192,0,0.58-0.099,0.58-0.803c0-3.245,0-6.445,0-9.716
		c0-0.251-0.511-0.79-0.78-0.791c-3.091-0.003-6.182,0.017-9.271-0.019c-0.636-0.008-0.908,0.207-1.044,0.8
		c-0.309,1.353-0.646,2.702-0.989,4.099c-0.06,0.246-0.384,0.669-0.878,0.588c-0.478-0.078-0.966-0.174-1.471-0.324
		c-0.536-0.16-0.428-0.616-0.373-0.863c0.253-1.143,0.502-2.272,0.762-3.447c0.061-0.276,0.18-0.836-0.884-0.836
		c-0.442,0-0.875,0-1.309,0c-1.389,0-2.78-0.028-4.167,0.023c-0.288,0.011-0.687,0.248-0.826,0.497
		c-0.239,0.43-0.458,0.872-0.674,1.327c-0.228,0.48-0.864,1.381-2.12,1.176c-0.855-0.139-1.44-0.239-2.287-0.483
		c-0.879-0.252-1.151-0.908-0.6-2.131c2.052-4.552,4.904-8.429,8.751-11.611c4.186-3.46,8.967-5.717,14.319-6.576
		c8.511-1.365,16.376,0.362,23.408,5.437c4.649,3.355,8.03,7.735,10.368,12.976c0.973,2.182,0.835,4.255-0.142,6.289
		c-0.474,0.986-1.091,1.905-1.7,2.827C65.199,55.136,64.4,55.087,64.365,54.795z M52.906,55.554
		c-0.129-3.473-0.711-6.782-1.682-10.035c-0.155-0.52-1.089-0.472-1.453-0.472c-3.172-0.001-5.723-0.003-8.895,0.001
		c-0.214,0-0.656,0.551-0.656,0.791c0,3.26,0,6.478,0,9.716c0,0.61,0.485,0.741,0.728,0.741c3.713,0,7.386,0,11.133,0
		C52.978,56.294,52.915,55.8,52.906,55.554z M49.59,41.35c-1.532-3.982-5.917-8.372-8.643-8.775
		c-0.256-0.038-0.719-0.187-0.719,0.52c0,2.74,0,5.48,0,8.256c0,0.66,0.595,0.834,0.826,0.834c2.683,0,5.367,0,8.103,0
		C49.394,42.185,49.698,41.632,49.59,41.35z M36.75,32.576c-3.602,0.731-7.203,5.045-8.635,8.535
		c-0.144,0.353-0.631,1.028,0.288,1.028c2.684,0,5.369,0,8.082,0c0.726,0,0.867-0.622,0.867-0.932c0-2.71,0-5.394,0-8.112
		C37.353,32.53,36.951,32.535,36.75,32.576z M28.239,34.323c-3.663,1.598-6.789,3.934-9.406,7.147
		c-0.19,0.234-0.48,0.716,0.228,0.716c1.737,0,3.335,0.013,4.933-0.024c0.243-0.005,0.598-0.281,0.699-0.518
		c1.106-2.592,2.489-4.998,4.276-7.205C29.674,33.567,28.66,34.139,28.239,34.323z M48.508,34.439
		c1.897,2.163,3.166,4.239,4.213,6.912c0.352,0.896,1.156,0.816,1.437,0.819c1.452,0.014,2.92,0.011,4.481,0.009
		c0.22-0.001,0.307-0.453,0.124-0.673c-2.688-3.236-5.818-5.637-9.606-7.317C48.073,33.709,48.413,34.331,48.508,34.439z"/>
</g>
<path class="st1" d="M53.844,12.856c1.573,3.542,1.871,9.541-1.306,12.451C47.159,4.304,33.862,0,33.862,0
	c1.573,10.831-5.699,22.675-12.714,31.524c-0.246-4.317-0.509-7.299-2.712-11.432c-0.497,7.847-6.011,14.45-7.587,22.312
	c-0.369,1.837-0.701,2.491-0.711,4.165c0.226-2.963,3.991-2.784,5.793-5.419c1.81-2.645,7.379-7.866,9.955-9.189
	c2.576-1.323,10.233-2.506,11.486-3.69c1.253-1.183,3.898-0.069,6.543,1.184c2.645,1.253,17.194,11.208,20.884,16.011
	c2.411,3.14,2.479,5.199,1.527,7.938C77.6,34.664,57.635,15.703,53.844,12.856z"/>
</svg>
