<?xml version="1.0" encoding="utf-8"?>
<!-- Generator: Adobe Illustrator 19.2.1, SVG Export Plug-In . SVG Version: 6.00 Build 0)  -->
<svg version="1.1" id="Ebene_1" xmlns="http://www.w3.org/2000/svg" xmlns:xlink="http://www.w3.org/1999/xlink" x="0px" y="0px"
	 viewBox="0 0 75.198 109.612" style="enable-background:new 0 0 75.198 109.612;" xml:space="preserve">
<style type="text/css">
	.st0{fill-rule:evenodd;clip-rule:evenodd;fill:#FFFFFF;}
	.st1{fill:#FFFFFF;}
</style>
<g>
	<path class="st1" d="M20.202,47.066c0.041-0.731,0.024-15.991-0.02-16.335c-0.069-0.016-0.146-0.043-0.224-0.049
		c-0.124-0.009-0.249-0.003-0.374-0.003c-5.434,0-10.868,0-16.301,0c-0.151,0-0.302,0-0.494,0c0.038-0.076,0.05-0.132,0.084-0.162
		c0.381-0.341,0.764-0.677,1.148-1.015c0.041-0.036,0.088-0.067,0.129-0.104c0.347-0.316,0.69-0.639,1.042-0.949
		c0.31-0.274,0.631-0.535,0.947-0.802c0.032-0.027,0.064-0.053,0.094-0.081c0.357-0.327,0.709-0.659,1.072-0.979
		c0.31-0.274,0.633-0.533,0.95-0.799c0.042-0.036,0.082-0.075,0.121-0.114c0.411-0.411,0.863-0.775,1.306-1.148
		c0.338-0.285,0.654-0.596,0.985-0.888c0.341-0.301,0.69-0.595,1.035-0.891c0.031-0.027,0.065-0.052,0.095-0.08
		c0.347-0.317,0.69-0.639,1.042-0.95c0.31-0.274,0.631-0.536,0.947-0.803c0.032-0.027,0.064-0.053,0.095-0.081
		c0.347-0.317,0.69-0.639,1.042-0.95c0.31-0.274,0.631-0.535,0.947-0.802c0.032-0.027,0.064-0.053,0.094-0.081
		c0.357-0.327,0.709-0.659,1.071-0.979c0.31-0.274,0.637-0.529,0.949-0.8c0.313-0.272,0.614-0.557,0.926-0.83
		c0.373-0.328,0.751-0.65,1.127-0.975c0.031-0.027,0.063-0.055,0.093-0.083c0.347-0.317,0.689-0.639,1.042-0.95
		c0.31-0.273,0.632-0.534,0.949-0.8c0.042-0.036,0.083-0.073,0.123-0.112c0.421-0.42,0.881-0.795,1.336-1.177
		c0.349-0.293,0.673-0.616,1.015-0.917c0.331-0.292,0.671-0.574,1.006-0.861c0.032-0.027,0.064-0.053,0.094-0.081
		c0.357-0.327,0.709-0.659,1.071-0.979c0.31-0.274,0.637-0.529,0.949-0.8c0.313-0.272,0.614-0.557,0.926-0.83
		c0.373-0.328,0.751-0.65,1.127-0.975c0.031-0.027,0.063-0.055,0.093-0.083c0.357-0.327,0.708-0.659,1.071-0.979
		c0.31-0.274,0.637-0.528,0.95-0.799c0.303-0.262,0.594-0.538,0.895-0.802c0.383-0.337,0.771-0.669,1.157-1.003
		c0.031-0.027,0.062-0.056,0.093-0.084c0.357-0.327,0.71-0.657,1.071-0.98c0.453-0.405,0.902-0.815,1.373-1.198
		c0.237-0.192,0.456-0.402,0.681-0.606C37.285,0.196,37.436,0.099,37.568,0c0.247,0.099,0.414,0.261,0.588,0.419
		c0.389,0.351,0.79,0.69,1.185,1.034c0.031,0.027,0.062,0.055,0.093,0.084c0.357,0.327,0.708,0.659,1.071,0.979
		c0.31,0.273,0.638,0.527,0.95,0.799c0.333,0.291,0.653,0.597,0.984,0.889c0.341,0.301,0.69,0.594,1.035,0.891
		c0.031,0.027,0.065,0.052,0.095,0.08c0.347,0.317,0.69,0.639,1.042,0.95c0.31,0.274,0.631,0.536,0.947,0.803
		c0.032,0.027,0.064,0.053,0.095,0.081c0.347,0.317,0.689,0.639,1.042,0.95c0.31,0.274,0.631,0.535,0.947,0.802
		c0.032,0.027,0.064,0.053,0.094,0.081c0.357,0.327,0.709,0.659,1.071,0.979c0.31,0.274,0.633,0.533,0.95,0.799
		c0.042,0.036,0.082,0.075,0.121,0.114c0.411,0.411,0.863,0.774,1.306,1.148c0.338,0.285,0.654,0.596,0.985,0.888
		c0.341,0.301,0.69,0.594,1.035,0.891c0.031,0.027,0.065,0.052,0.095,0.08c0.347,0.317,0.69,0.639,1.042,0.95
		c0.31,0.274,0.631,0.536,0.946,0.803c0.032,0.027,0.064,0.053,0.095,0.081c0.347,0.317,0.689,0.639,1.042,0.95
		c0.31,0.274,0.631,0.535,0.947,0.802c0.032,0.027,0.064,0.053,0.094,0.081c0.357,0.327,0.709,0.659,1.072,0.979
		c0.31,0.274,0.637,0.529,0.949,0.8c0.313,0.272,0.614,0.557,0.926,0.83c0.373,0.328,0.751,0.65,1.127,0.975
		c0.031,0.027,0.063,0.055,0.093,0.083c0.357,0.327,0.709,0.659,1.071,0.979c0.31,0.273,0.637,0.528,0.95,0.799
		c0.303,0.262,0.594,0.537,0.895,0.802c0.383,0.337,0.771,0.669,1.157,1.003c0.031,0.027,0.062,0.055,0.093,0.084
		c0.357,0.327,0.71,0.658,1.071,0.98c0.453,0.405,0.906,0.81,1.371,1.201c0.465,0.392,0.924,0.789,1.369,1.203
		c0.303,0.281,0.633,0.533,0.949,0.8c0.053,0.045,0.098,0.098,0.15,0.143c0.415,0.364,0.834,0.724,1.246,1.091
		c0.154,0.137,0.297,0.287,0.436,0.423c-0.034,0.121-0.113,0.094-0.176,0.096c-0.111,0.004-0.222,0.001-0.333,0.001
		c-5.448,0-10.895,0-16.343,0c-0.164,0-0.328,0.005-0.51,0.009c-0.021,0.101-0.045,0.178-0.05,0.256
		c-0.008,0.11-0.003,0.222-0.003,0.333c0,5.101,0,10.202,0,15.303c0,0.165,0,0.33,0,0.514c0.115,0.049,0.209,0.108,0.312,0.131
		c1.091,0.246,2.166,0.551,3.235,0.876c1.005,0.305,1.994,0.661,2.982,1.019c0.766,0.278,1.53,0.566,2.273,0.899
		c0.947,0.425,1.883,0.877,2.802,1.359c1.041,0.546,2.032,1.182,2.986,1.869c0.536,0.386,1.057,0.796,1.55,1.243
		c0.338,0.307,0.676,0.613,0.996,0.938c0.486,0.492,0.913,1.034,1.321,1.593c0.31,0.425,0.587,0.873,0.826,1.339
		c0.335,0.653,0.599,1.338,0.756,2.057c0.109,0.499,0.178,1.002,0.178,1.516c-0.004,10.341-0.005,20.682,0.001,31.023
		c0,0.686-0.137,1.341-0.319,1.994c-0.191,0.685-0.469,1.333-0.822,1.946c-0.324,0.563-0.699,1.093-1.101,1.605
		c-0.533,0.678-1.163,1.263-1.787,1.852c-0.47,0.444-0.976,0.854-1.515,1.217c-0.607,0.409-1.214,0.818-1.826,1.221
		c-0.219,0.144-0.446,0.278-0.678,0.4c-0.822,0.43-1.633,0.884-2.476,1.27c-1.017,0.466-2.054,0.891-3.096,1.298
		c-0.746,0.292-1.509,0.544-2.274,0.781c-0.869,0.269-1.75,0.505-2.626,0.75c-0.438,0.123-0.878,0.241-1.32,0.349
		c-0.87,0.211-1.743,0.407-2.625,0.565c-0.515,0.092-1.025,0.207-1.54,0.301c-0.406,0.074-0.815,0.13-1.223,0.194
		c-0.177,0.028-0.353,0.057-0.53,0.084c-0.517,0.079-1.032,0.165-1.55,0.234c-0.341,0.045-0.686,0.062-1.028,0.1
		c-0.355,0.039-0.71,0.089-1.064,0.134c-0.068,0.009-0.136,0.025-0.205,0.027c-0.276,0.01-0.555-0.021-0.822,0.08
		c-0.445-0.038-0.879,0.082-1.321,0.089c-0.303,0.005-0.603,0.007-0.908,0.063c-0.296,0.054-0.608,0.016-0.913,0.021
		c-0.207,0.003-0.413-0.01-0.617,0.06c-0.101,0.034-0.219,0.019-0.33,0.02c-2.052,0.001-4.103,0.002-6.155-0.001
		c-0.15,0-0.301-0.032-0.451-0.047c-0.11-0.011-0.219-0.027-0.329-0.029c-0.263-0.005-0.527-0.003-0.79-0.004
		c-0.083,0-0.171,0.015-0.249-0.006c-0.381-0.106-0.777-0.024-1.154-0.089c-0.465-0.08-0.94-0.011-1.397-0.142
		c-0.052-0.015-0.11-0.01-0.165-0.01c-0.471,0.002-0.933-0.07-1.395-0.154c-0.041-0.007-0.083-0.01-0.124-0.011
		c-0.664-0.01-1.311-0.165-1.967-0.232c-0.453-0.046-0.899-0.13-1.349-0.192c-0.422-0.058-0.838-0.16-1.26-0.221
		c-0.614-0.088-1.219-0.221-1.825-0.351c-0.579-0.124-1.162-0.233-1.738-0.369c-0.751-0.176-1.501-0.363-2.246-0.562
		c-0.533-0.142-1.059-0.311-1.588-0.471c-0.489-0.148-0.981-0.29-1.464-0.454c-0.942-0.321-1.871-0.678-2.792-1.054
		c-1.09-0.445-2.163-0.925-3.2-1.482c-0.657-0.353-1.295-0.741-1.942-1.114c-0.672-0.387-1.298-0.841-1.914-1.31
		c-0.263-0.2-0.505-0.429-0.772-0.625c-0.472-0.347-0.849-0.793-1.271-1.191c-0.637-0.602-1.16-1.294-1.647-2.02
		c-0.64-0.954-1.08-1.989-1.332-3.107C0.062,93.902,0,93.442,0,92.969c0.004-10.341,0.004-20.682,0-31.023
		c0-1.042,0.268-2.014,0.653-2.971c0.225-0.557,0.531-1.063,0.842-1.569c0.18-0.293,0.398-0.563,0.608-0.837
		c0.193-0.252,0.38-0.511,0.599-0.739c0.392-0.41,0.805-0.799,1.211-1.195c0.069-0.067,0.155-0.117,0.222-0.186
		c0.359-0.368,0.774-0.667,1.183-0.973c0.842-0.629,1.723-1.203,2.634-1.726c1.008-0.579,2.042-1.113,3.113-1.568
		c0.75-0.319,1.496-0.651,2.258-0.941c0.801-0.304,1.617-0.568,2.429-0.842c1.348-0.455,2.722-0.819,4.102-1.162
		C19.975,47.207,20.095,47.187,20.202,47.066z M35.618,87.568C35.618,87.568,35.618,87.568,35.618,87.568
		c0.499,0,0.998,0.002,1.497-0.002c0.124-0.001,0.248-0.017,0.371-0.029c0.151-0.015,0.301-0.045,0.451-0.046
		c0.79-0.006,1.58-0.004,2.37-0.008c0.138-0.001,0.276-0.014,0.413-0.027c0.151-0.014,0.3-0.045,0.451-0.049
		c0.319-0.009,0.638-0.001,0.956-0.007c0.123-0.002,0.247-0.023,0.37-0.036c0.137-0.014,0.273-0.035,0.411-0.042
		c0.606-0.032,1.213-0.06,1.82-0.09c0.041-0.002,0.086-0.001,0.123-0.017c0.172-0.073,0.353-0.055,0.533-0.063
		c0.123-0.006,0.246-0.026,0.369-0.041c0.109-0.013,0.218-0.031,0.328-0.039c0.398-0.032,0.798-0.056,1.195-0.094
		c0.26-0.025,0.518-0.068,0.777-0.107c0.272-0.041,0.543-0.092,0.815-0.129c0.477-0.065,0.957-0.112,1.433-0.184
		c0.476-0.072,0.952-0.152,1.423-0.251c0.863-0.18,1.723-0.37,2.583-0.567c1.305-0.299,2.594-0.657,3.871-1.058
		c1.292-0.406,2.573-0.846,3.813-1.398c1.063-0.474,2.101-0.991,3.077-1.629c0.939-0.614,1.83-1.287,2.618-2.09
		c0.432-0.441,0.753-0.955,0.992-1.519c0.085-0.202,0.162-0.418,0.186-0.634c0.078-0.725-0.087-1.399-0.481-2.018
		c-0.336-0.528-0.72-1.016-1.19-1.43c-0.175-0.154-0.374-0.282-0.571-0.409c-0.249-0.161-0.529-0.164-0.801-0.086
		c-0.238,0.068-0.469,0.166-0.699,0.26c-0.281,0.115-0.557,0.245-0.838,0.359c-0.64,0.259-1.281,0.517-1.925,0.767
		c-0.515,0.2-1.03,0.401-1.553,0.579c-0.706,0.24-1.418,0.464-2.131,0.684c-0.461,0.142-0.927,0.269-1.394,0.393
		c-1.239,0.33-2.484,0.631-3.742,0.882c-0.513,0.102-1.029,0.19-1.543,0.284c-0.406,0.074-0.811,0.153-1.218,0.22
		c-0.421,0.07-0.843,0.132-1.266,0.19c-0.286,0.04-0.575,0.065-0.861,0.103c-0.354,0.046-0.707,0.126-1.062,0.14
		c-0.414,0.017-0.819,0.139-1.237,0.098c-0.053-0.005-0.108,0.021-0.162,0.028c-0.136,0.018-0.273,0.038-0.41,0.047
		c-0.124,0.009-0.257-0.021-0.373,0.013c-0.313,0.092-0.631,0.065-0.948,0.075c-0.082,0.003-0.165,0.017-0.247,0.026
		c-0.164,0.018-0.328,0.045-0.492,0.052c-0.249,0.011-0.508-0.032-0.746,0.021c-0.318,0.07-0.632,0.058-0.949,0.063
		c-0.402,0.006-0.804,0.002-1.206,0.005c-0.11,0.001-0.221,0.009-0.331,0.02c-0.178,0.017-0.355,0.055-0.533,0.055
		c-1.497,0.004-2.994,0.003-4.491,0.002c-0.111,0-0.229,0.018-0.331-0.015c-0.258-0.084-0.521-0.061-0.783-0.064
		c-0.388-0.004-0.776-0.002-1.164-0.004c-0.111-0.001-0.23,0.015-0.33-0.02c-0.204-0.07-0.41-0.057-0.617-0.06
		c-0.277-0.005-0.562,0.031-0.829-0.021c-0.29-0.056-0.576-0.057-0.866-0.064c-0.111-0.003-0.229,0.015-0.33-0.018
		c-0.217-0.071-0.437-0.061-0.658-0.066c-0.097-0.002-0.201,0.009-0.288-0.022c-0.189-0.069-0.382-0.054-0.575-0.06
		c-0.111-0.003-0.227,0.009-0.331-0.02c-0.39-0.107-0.795-0.055-1.189-0.139c-0.308-0.066-0.629-0.067-0.944-0.103
		c-0.246-0.028-0.491-0.062-0.736-0.102c-0.231-0.038-0.459-0.093-0.69-0.129c-0.612-0.094-1.231-0.153-1.837-0.276
		c-1.255-0.254-2.513-0.497-3.756-0.809c-1.299-0.325-2.588-0.683-3.865-1.087c-1.12-0.355-2.229-0.744-3.317-1.187
		c-0.742-0.302-1.482-0.612-2.214-0.939c-0.5-0.223-0.953-0.261-1.448,0.055c-0.821,0.526-1.434,1.189-1.748,2.13
		c-0.178,0.534-0.173,1.075-0.099,1.601c0.111,0.795,0.486,1.494,1.026,2.093c0.418,0.463,0.88,0.883,1.367,1.27
		c0.944,0.751,1.973,1.374,3.053,1.909c0.458,0.227,0.93,0.425,1.401,0.624c0.929,0.393,1.874,0.747,2.829,1.073
		c0.562,0.192,1.137,0.346,1.699,0.537c0.851,0.289,1.722,0.502,2.59,0.729c0.919,0.24,1.849,0.441,2.778,0.644
		c0.605,0.132,1.213,0.261,1.826,0.345c0.614,0.084,1.218,0.222,1.837,0.28c0.547,0.051,1.088,0.161,1.634,0.228
		c0.369,0.046,0.741,0.061,1.112,0.093c0.068,0.006,0.135,0.029,0.203,0.039c0.109,0.016,0.218,0.032,0.328,0.038
		c0.496,0.025,0.987,0.123,1.487,0.09c0.04-0.003,0.082,0.014,0.123,0.019c0.164,0.02,0.327,0.05,0.492,0.055
		c0.332,0.009,0.665,0.004,0.998,0.006c0.097,0.001,0.201-0.015,0.289,0.015c0.244,0.083,0.493,0.061,0.741,0.063
		C34.759,87.57,35.188,87.568,35.618,87.568z M36.045,102.789C36.045,102.789,36.045,102.789,36.045,102.789
		c0.942-0.001,1.885,0,2.827-0.001c0.125,0,0.257,0.019,0.372-0.017c0.245-0.077,0.493-0.059,0.741-0.062
		c0.43-0.004,0.859-0.001,1.289-0.006c0.124-0.001,0.247-0.017,0.371-0.03c0.151-0.015,0.3-0.043,0.451-0.047
		c0.291-0.009,0.589,0.034,0.871-0.017c0.372-0.067,0.742-0.064,1.115-0.072c0.055-0.001,0.116,0.005,0.165-0.015
		c0.214-0.085,0.437-0.061,0.657-0.066c0.111-0.003,0.229,0.016,0.33-0.018c0.217-0.073,0.437-0.058,0.658-0.066
		c0.11-0.004,0.22-0.019,0.329-0.031c0.137-0.015,0.273-0.036,0.409-0.049c0.096-0.01,0.194-0.006,0.29-0.018
		c0.368-0.047,0.735-0.101,1.103-0.148c0.301-0.038,0.603-0.06,0.903-0.105c0.449-0.068,0.894-0.153,1.342-0.226
		c0.408-0.066,0.821-0.104,1.224-0.189c1.118-0.235,2.241-0.449,3.35-0.73c0.976-0.247,1.951-0.501,2.911-0.804
		c0.75-0.237,1.495-0.493,2.241-0.743c0.196-0.066,0.393-0.133,0.585-0.211c0.512-0.208,1.021-0.424,1.532-0.635
		c0.858-0.355,1.678-0.788,2.472-1.267c0.472-0.285,0.929-0.598,1.378-0.918c0.438-0.312,0.868-0.638,1.244-1.028
		c0.183-0.19,0.369-0.376,0.559-0.559c0.375-0.36,0.654-0.788,0.864-1.258c0.261-0.584,0.328-1.191,0.175-1.82
		c-0.162-0.662-0.513-1.218-0.958-1.717c-0.258-0.289-0.55-0.548-0.819-0.827c-0.222-0.23-0.509-0.327-0.8-0.417
		c-0.062-0.019-0.14-0.016-0.204,0.002c-0.173,0.046-0.347,0.094-0.512,0.161c-0.652,0.266-1.299,0.546-1.953,0.809
		c-0.718,0.289-1.434,0.582-2.162,0.842c-1.561,0.557-3.143,1.048-4.752,1.452c-0.722,0.181-1.442,0.373-2.17,0.522
		c-0.634,0.13-1.262,0.283-1.905,0.374c-0.708,0.1-1.407,0.257-2.111,0.383c-0.23,0.041-0.464,0.064-0.696,0.093
		c-0.3,0.039-0.601,0.074-0.901,0.114c-0.313,0.042-0.625,0.099-0.939,0.132c-0.384,0.04-0.769,0.061-1.154,0.091
		c-0.041,0.003-0.082,0.012-0.123,0.017c-0.396,0.048-0.791,0.108-1.188,0.14c-0.316,0.025-0.637-0.02-0.946,0.083
		c-0.526-0.023-1.047,0.05-1.57,0.085c-0.248,0.016-0.499,0.001-0.748,0.006c-0.11,0.002-0.219,0.02-0.329,0.031
		c-0.137,0.015-0.273,0.044-0.41,0.045c-2.398,0.003-4.795,0.002-7.193,0.002c-0.111,0-0.229,0.013-0.33-0.021
		c-0.19-0.065-0.382-0.056-0.575-0.058c-0.305-0.002-0.61-0.002-0.915-0.003c-0.097-0.001-0.201,0.016-0.289-0.013
		c-0.299-0.095-0.604-0.06-0.907-0.069c-0.152-0.005-0.313,0.02-0.455-0.021c-0.219-0.064-0.438-0.057-0.658-0.062
		c-0.111-0.003-0.229,0.016-0.33-0.017c-0.231-0.075-0.465-0.059-0.699-0.067c-0.124-0.004-0.248-0.018-0.371-0.031
		c-0.137-0.015-0.273-0.033-0.409-0.051c-0.136-0.018-0.272-0.038-0.409-0.053c-0.11-0.013-0.22-0.025-0.33-0.028
		c-0.18-0.006-0.355-0.015-0.533-0.06c-0.239-0.06-0.489-0.077-0.735-0.104c-0.329-0.036-0.66-0.049-0.986-0.099
		c-0.612-0.094-1.22-0.207-1.83-0.313c-0.678-0.118-1.36-0.218-2.033-0.359c-0.809-0.169-1.61-0.375-2.415-0.562
		c-1.453-0.339-2.876-0.779-4.296-1.233c-0.302-0.097-0.598-0.215-0.897-0.321c-0.182-0.064-0.37-0.116-0.55-0.186
		c-0.966-0.374-1.94-0.729-2.883-1.16c-0.289-0.132-0.58-0.265-0.882-0.359c-0.392-0.122-0.789-0.152-1.142,0.133
		c-0.021,0.017-0.047,0.029-0.071,0.043c-0.529,0.295-0.939,0.702-1.285,1.205c-0.53,0.769-0.637,1.619-0.531,2.498
		c0.082,0.682,0.387,1.312,0.832,1.829c0.522,0.607,1.097,1.175,1.738,1.662c0.86,0.653,1.786,1.206,2.741,1.709
		c0.244,0.129,0.504,0.228,0.755,0.342c0.34,0.154,0.673,0.326,1.021,0.459c0.813,0.311,1.628,0.617,2.451,0.899
		c0.849,0.292,1.703,0.572,2.565,0.823c0.873,0.254,1.757,0.469,2.638,0.696c1.081,0.278,2.178,0.483,3.273,0.693
		c0.419,0.08,0.837,0.161,1.258,0.231c0.407,0.068,0.816,0.124,1.225,0.182c0.367,0.053,0.735,0.104,1.103,0.151
		c0.287,0.037,0.574,0.071,0.862,0.098c0.384,0.035,0.769,0.06,1.154,0.091c0.041,0.003,0.081,0.02,0.122,0.025
		c0.15,0.019,0.3,0.04,0.451,0.05c0.138,0.009,0.285-0.024,0.414,0.012c0.396,0.11,0.798,0.057,1.198,0.074
		c0.138,0.006,0.276,0.013,0.413,0.025c0.164,0.015,0.328,0.052,0.492,0.053C34.16,102.792,35.102,102.789,36.045,102.789z"/>
</g>
</svg>
