<?xml version="1.0" encoding="utf-8"?>
<!-- Generator: Adobe Illustrator 19.2.1, SVG Export Plug-In . SVG Version: 6.00 Build 0)  -->
<svg version="1.1" id="Ebene_1" xmlns="http://www.w3.org/2000/svg" xmlns:xlink="http://www.w3.org/1999/xlink" x="0px" y="0px"
	 viewBox="0 0 67.169 83.133" style="enable-background:new 0 0 67.169 83.133;" xml:space="preserve">
<style type="text/css">
	.st0{fill-rule:evenodd;clip-rule:evenodd;fill:#FFFFFF;}
	.st1{fill:#FFFFFF;}
</style>
<g>
	<path class="st1" d="M15.002,68.005c-0.047-0.01-0.087-0.025-0.128-0.027c-0.107-0.004-0.214-0.003-0.321-0.003
		c-4.216,0-8.432-0.003-12.648,0.005c-0.427,0.001-0.801-0.126-1.146-0.345c-0.158-0.1-0.3-0.248-0.407-0.403
		c-0.119-0.174-0.193-0.38-0.282-0.574C0.017,66.539,0,66.412,0.005,66.282c0.004-0.118,0-0.235,0-0.353c0-12.37,0-24.74,0-37.11
		c0-0.075,0.005-0.15-0.001-0.225c-0.037-0.494,0.175-0.905,0.485-1.251c0.338-0.378,0.783-0.584,1.304-0.59
		c0.128-0.002,0.257,0,0.385,0c10.744,0,21.487,0,32.231-0.001c0.137,0,0.277,0.02,0.413-0.024c0.016-0.033,0.042-0.062,0.04-0.089
		c-0.019-0.301,0.043-0.595,0.079-0.89c0.072-0.581,0.202-1.151,0.355-1.716c0.198-0.733,0.481-1.435,0.759-2.139
		c0.11-0.278,0.24-0.548,0.37-0.817c0.352-0.732,0.713-1.46,1.062-2.193c0.271-0.569,0.542-1.138,0.791-1.716
		c0.413-0.961,0.775-1.942,0.998-2.967c0.072-0.331,0.151-0.665,0.154-1.008c0.001-0.118,0.041-0.223,0.09-0.324
		c0.09,0.013,0.102,0.085,0.129,0.139c0.241,0.477,0.44,0.971,0.625,1.473c0.185,0.502,0.302,1.021,0.423,1.54
		c0.046,0.196,0.054,0.4,0.083,0.6c0.036,0.252,0.078,0.504,0.113,0.756c0.01,0.074,0.011,0.149,0.013,0.224
		c0.006,0.192,0.01,0.38,0.048,0.572c0.038,0.196,0.013,0.405,0.019,0.608c0.002,0.06-0.019,0.131,0.065,0.174
		c0.17-0.126,0.275-0.315,0.4-0.481c0.559-0.74,1.107-1.489,1.6-2.276c0.351-0.561,0.697-1.124,1.037-1.692
		c0.324-0.541,0.622-1.096,0.9-1.662c0.099-0.201,0.226-0.388,0.32-0.591c0.287-0.62,0.563-1.244,0.844-1.867
		c0.395-0.877,0.726-1.778,1.021-2.692c0.278-0.862,0.515-1.735,0.688-2.625c0.087-0.448,0.183-0.896,0.239-1.349
		c0.041-0.327,0.076-0.654,0.131-0.979c0.016-0.094,0.005-0.192,0.006-0.288c0.001-0.364,0.003-0.728,0.001-1.091
		c-0.001-0.213,0.017-0.426-0.051-0.636c-0.025-0.078-0.006-0.17-0.013-0.255c-0.012-0.146-0.028-0.292-0.043-0.433
		c0.054-0.06,0.107-0.029,0.147-0.001c0.396,0.27,0.793,0.539,1.184,0.818C49.658,1,49.859,1.16,50.052,1.327
		c0.281,0.245,0.551,0.504,0.828,0.754c0.142,0.129,0.289,0.252,0.432,0.38c0.071,0.064,0.14,0.132,0.205,0.204
		c0.136,0.15,0.261,0.31,0.403,0.454c0.442,0.449,0.843,0.932,1.238,1.423c0.548,0.682,1.063,1.388,1.536,2.124
		c0.248,0.386,0.473,0.786,0.713,1.177c0.387,0.629,0.714,1.29,1.036,1.953c0.331,0.682,0.633,1.377,0.899,2.087
		c0.236,0.629,0.461,1.263,0.674,1.9c0.135,0.404,0.239,0.818,0.359,1.227c0.047,0.162,0.101,0.322,0.16,0.51
		c0.065-0.039,0.113-0.058,0.148-0.091c0.33-0.3,0.548-0.673,0.731-1.076c0.2-0.441,0.328-0.9,0.411-1.373
		c0.044-0.251,0.07-0.506,0.084-0.76c0.014-0.245,0.006-0.492,0.001-0.738c-0.002-0.095-0.022-0.19-0.035-0.284
		c-0.006-0.042-0.022-0.084-0.022-0.126c-0.002-0.474-0.127-0.925-0.243-1.379c-0.066-0.26-0.14-0.514-0.254-0.757
		c-0.012-0.026-0.008-0.061-0.011-0.092c0.065-0.055,0.095,0.012,0.136,0.032c0.038,0.019,0.08,0.037,0.109,0.067
		c0.389,0.396,0.777,0.794,1.164,1.192c0.044,0.046,0.079,0.101,0.124,0.146c0.411,0.406,0.755,0.868,1.113,1.319
		c0.584,0.736,1.113,1.511,1.613,2.305c0.284,0.451,0.551,0.913,0.812,1.379c0.23,0.41,0.443,0.829,0.657,1.247
		c0.282,0.552,0.517,1.125,0.742,1.702c0.139,0.358,0.28,0.716,0.397,1.081c0.26,0.811,0.497,1.629,0.644,2.471
		c0.075,0.429,0.155,0.857,0.189,1.292c0.017,0.211,0.068,0.419,0.099,0.629c0.013,0.084,0.02,0.17,0.02,0.255
		c0.002,0.556,0.008,1.113-0.002,1.669c-0.004,0.222-0.041,0.445-0.07,0.666c-0.034,0.252-0.078,0.503-0.115,0.755
		c-0.066,0.453-0.151,0.902-0.278,1.342c-0.094,0.327-0.187,0.656-0.291,0.98c-0.147,0.458-0.343,0.896-0.536,1.336
		c-0.232,0.53-0.524,1.026-0.809,1.526c-0.179,0.314-0.389,0.613-0.599,0.909c-0.228,0.321-0.47,0.632-0.709,0.946
		c-0.058,0.076-0.128,0.143-0.19,0.217c-0.075,0.09-0.144,0.185-0.221,0.273c-0.076,0.087-0.096,0.186-0.091,0.297
		c0.004,0.085,0.001,0.171,0.001,0.257c0,10.294,0,20.588,0,30.882c0,0.192-0.001,0.38-0.055,0.571
		c-0.198,0.696-0.638,1.137-1.335,1.333c-0.18,0.051-0.357,0.055-0.538,0.055c-9.534,0-19.069,0-28.603,0.001
		c-0.538,0-0.388-0.086-0.771,0.329c-0.922,0.998-1.921,1.921-2.844,2.916c-0.772,0.831-1.607,1.599-2.375,2.432
		c-0.892,0.968-1.862,1.859-2.754,2.824c-0.792,0.857-1.655,1.642-2.441,2.502c-0.852,0.932-1.781,1.787-2.642,2.709
		c-0.299,0.32-0.599,0.638-0.904,0.952c-0.167,0.171-0.365,0.296-0.583,0.389c-0.157,0.067-0.32,0.116-0.497,0.103
		c-0.222-0.016-0.445,0.02-0.666-0.057c-0.518-0.18-0.875-0.523-1.072-1.029c-0.097-0.249-0.143-0.507-0.143-0.781
		c0.006-4.291,0.004-8.582,0.003-12.873C15.032,68.265,15.05,68.136,15.002,68.005z"/>
</g>
</svg>
