<?xml version="1.0" encoding="utf-8"?>
<!-- Generator: Adobe Illustrator 19.2.1, SVG Export Plug-In . SVG Version: 6.00 Build 0)  -->
<svg version="1.1" id="Ebene_1" xmlns="http://www.w3.org/2000/svg" xmlns:xlink="http://www.w3.org/1999/xlink" x="0px" y="0px"
	 viewBox="0 0 45.677 74.795" style="enable-background:new 0 0 45.677 74.795;" xml:space="preserve">
<style type="text/css">
	.st0{fill-rule:evenodd;clip-rule:evenodd;fill:#FFFFFF;}
	.st1{fill:#FFFFFF;}
</style>
<path class="st1" d="M28.917,39.519c3.892-7.804,1.004-18.335-5.753-23.195c0,0,0.001,0.005,0.001,0.01
	c-0.004-0.003-0.008-0.006-0.012-0.009c0.451,2.09-0.112,7.539-3.092,10.968c0.672-3.539-1.017-5.801-1.017-5.801l-0.002,0.013
	l-0.006-0.009c0,0-0.555,3.209-2.707,6.449c-1.965,2.958-3.327,6.097-0.774,11.573c-0.004-0.001-0.009-0.002-0.003,0.004
	c-8.137-4.724-10.28-9.197-9.054-15.305c0.905-4.512,4.246-8.181,4.531-12.685c1.264,2.372,1.415,4.083,1.556,6.561
	c4.026-5.079,8.2-11.876,7.297-18.092c0,0,7.632,2.47,10.719,14.524c1.823-1.67,1.653-5.113,0.75-7.146
	C34.057,9.411,49.605,27.455,28.917,39.519L28.917,39.519z M41.902,74.795H3.67c-1.921-0.1-3.477-1.76-3.67-3.876v-17.16
	c0-6.947,3.393-12.608,10.044-12.998c2.653,2.248,5.592,3.564,8.509,4.145c0.72,0.144,1.191,0.668,1.191,0.668l0.827,1.11
	c0.245,0.329,0.392,0.933,0.328,1.342l-2.321,14.818c-0.064,0.409,0.1,0.999,0.365,1.31l3.413,4.01c0.265,0.311,0.699,0.311,0.965,0
	l3.413-4.01c0.265-0.311,0.429-0.902,0.365-1.31l-2.322-14.818c-0.064-0.409,0.085-1.011,0.332-1.339c0,0,0.764-1.059,1.042-1.383
	c0.445-0.518,1.091-0.763,1.506-0.898c2.122-0.692,4.657-1.927,6.558-3.604c0.029-0.025,0.055-0.052,0.083-0.077h0.732
	c6.991,0,10.646,5.836,10.646,13.036v17.156C45.479,73.068,43.87,74.75,41.902,74.795L41.902,74.795z"/>
</svg>
