<?xml version="1.0" encoding="utf-8"?>
<!-- Generator: Adobe Illustrator 19.2.1, SVG Export Plug-In . SVG Version: 6.00 Build 0)  -->
<svg version="1.1" id="Ebene_1" xmlns="http://www.w3.org/2000/svg" xmlns:xlink="http://www.w3.org/1999/xlink" x="0px" y="0px"
	 viewBox="0 0 72 86.396" style="enable-background:new 0 0 72 86.396;" xml:space="preserve">
<style type="text/css">
	.st0{fill-rule:evenodd;clip-rule:evenodd;fill:#FFFFFF;}
	.st1{fill:#FFFFFF;}
</style>
<g>
	<polygon class="st1" points="63,59.396 63,77.396 9,77.396 9,59.396 0,59.396 0,86.396 72,86.396 72,59.396 	"/>
</g>
<path class="st1" d="M49.226,10.782c1.319,2.97,1.569,8-1.095,10.441C43.621,3.611,32.469,0,32.469,0
	c1.319,9.084-4.78,19.016-10.663,26.437c-0.207-3.62-0.426-6.12-2.275-9.587c-0.417,6.58-5.298,11.942-6.62,18.535
	c-1.79,8.926,1.331,14.998,13.23,22.364c0.974,0.603,2.002,1.047,3.05,1.415V45.612l-7.638-0.002l15.275-22.9l15.274,22.91
	l-7.637-0.004V58.4c0.428-0.197,0.86-0.393,1.207-0.602C76.082,39.468,53.182,13.753,49.226,10.782z"/>
</svg>
