<?xml version="1.0" encoding="utf-8"?>
<!-- Generator: Adobe Illustrator 19.2.1, SVG Export Plug-In . SVG Version: 6.00 Build 0)  -->
<svg version="1.1" id="Ebene_1" xmlns="http://www.w3.org/2000/svg" xmlns:xlink="http://www.w3.org/1999/xlink" x="0px" y="0px"
	 viewBox="0 0 100.262 84.841" style="enable-background:new 0 0 100.262 84.841;" xml:space="preserve">
<style type="text/css">
	.st0{fill-rule:evenodd;clip-rule:evenodd;fill:#FFFFFF;}
	.st1{fill:#FFFFFF;}
</style>
<g>
	<path class="st1" d="M100.257,42.441c0,6.699-0.004,13.397,0.005,20.096c0.001,0.84-0.111,1.66-0.315,2.466
		c-0.398,1.573-1.099,3.005-2.071,4.306c-0.423,0.567-0.845,1.132-1.351,1.631c-0.234,0.231-0.41,0.528-0.663,0.731
		c-0.479,0.384-0.877,0.855-1.373,1.221c-0.391,0.288-0.744,0.628-1.133,0.918c-0.794,0.591-1.604,1.159-2.456,1.665
		c-0.622,0.369-1.234,0.754-1.863,1.109c-0.452,0.255-0.927,0.47-1.391,0.704c-1.039,0.525-2.1,1.001-3.172,1.457
		c-1.84,0.783-3.721,1.445-5.626,2.042c-0.987,0.31-1.99,0.572-2.987,0.848c-0.605,0.167-1.211,0.331-1.821,0.476
		c-1.143,0.271-2.283,0.55-3.442,0.754c-0.94,0.165-1.873,0.369-2.812,0.539c-0.477,0.087-0.961,0.134-1.44,0.207
		c-0.557,0.085-1.111,0.185-1.668,0.264c-0.356,0.051-0.717,0.071-1.075,0.114c-0.373,0.045-0.744,0.101-1.116,0.15
		c-0.109,0.015-0.218,0.023-0.327,0.037c-0.186,0.022-0.372,0.046-0.558,0.07c-0.031,0.004-0.062,0.014-0.093,0.017
		c-0.5,0.035-1.001,0.07-1.502,0.103c-0.094,0.006-0.196-0.014-0.282,0.015c-0.292,0.098-0.592,0.065-0.889,0.083
		c-0.265,0.016-0.528,0.07-0.793,0.086c-0.267,0.016-0.545-0.037-0.802,0.019c-0.501,0.108-1.003,0.059-1.504,0.084
		c-0.187,0.009-0.373,0.043-0.559,0.062c-0.125,0.013-0.25,0.025-0.376,0.026c-0.552,0.004-1.103,0.001-1.655,0.006
		c-0.329,0.003-0.66-0.028-0.984,0.075c-0.101,0.032-0.219,0.013-0.329,0.013c-1.135,0.001-2.27,0.003-3.404-0.002
		c-0.171-0.001-0.342-0.037-0.513-0.054c-0.14-0.014-0.281-0.03-0.422-0.031c-0.583-0.005-1.166-0.002-1.749-0.006
		c-0.282-0.002-0.565,0.018-0.843-0.073c-0.115-0.037-0.25-0.014-0.376-0.019c-0.501-0.019-1.007,0.047-1.503-0.087
		c-0.103-0.028-0.22-0.006-0.33-0.009c-0.345-0.009-0.691,0.026-1.031-0.079c-0.116-0.036-0.25-0.012-0.376-0.015
		c-0.235-0.006-0.469,0.011-0.701-0.07c-0.114-0.04-0.249-0.021-0.375-0.024c-0.22-0.007-0.441,0.018-0.653-0.07
		c-0.056-0.023-0.124-0.018-0.187-0.022c-0.437-0.034-0.876-0.056-1.312-0.103c-0.404-0.044-0.804-0.119-1.208-0.17
		c-0.342-0.044-0.686-0.066-1.028-0.11c-0.372-0.049-0.741-0.117-1.113-0.169c-0.527-0.074-1.056-0.135-1.582-0.212
		c-0.372-0.055-0.741-0.126-1.11-0.191c-0.539-0.095-1.08-0.183-1.617-0.289c-0.568-0.112-1.134-0.236-1.7-0.362
		c-0.979-0.218-1.96-0.425-2.933-0.666c-0.989-0.246-1.969-0.528-2.953-0.795c-1.168-0.318-2.318-0.694-3.458-1.096
		c-1.185-0.418-2.364-0.852-3.523-1.342c-1.349-0.57-2.674-1.187-3.975-1.86c-0.796-0.412-1.573-0.859-2.336-1.329
		c-0.401-0.247-0.796-0.505-1.191-0.763c-0.71-0.465-1.379-0.983-2.046-1.508c-0.557-0.439-1.091-0.899-1.587-1.405
		c-0.076-0.078-0.169-0.139-0.253-0.211c-0.083-0.071-0.169-0.14-0.242-0.221c-0.148-0.162-0.277-0.342-0.434-0.495
		c-0.462-0.452-0.877-0.948-1.249-1.472c-0.509-0.717-1.011-1.444-1.379-2.249c-0.425-0.93-0.798-1.877-0.963-2.896
		c-0.095-0.589-0.178-1.175-0.178-1.774C0.005,49.122,0.006,35.662,0,22.202c0-0.681,0.104-1.343,0.225-2.006
		c0.17-0.933,0.498-1.819,0.913-2.664c0.367-0.746,0.803-1.456,1.292-2.135c0.795-1.105,1.749-2.063,2.732-2.991
		c0.535-0.505,1.127-0.951,1.707-1.406c0.656-0.513,1.345-0.982,2.051-1.424c0.559-0.35,1.124-0.692,1.696-1.021
		c0.6-0.344,1.202-0.688,1.82-0.996c0.746-0.371,1.506-0.713,2.267-1.053c0.602-0.269,1.216-0.513,1.823-0.772
		c1.404-0.599,2.85-1.083,4.298-1.559c1.67-0.549,3.365-1.013,5.074-1.427c0.746-0.181,1.491-0.368,2.241-0.535
		c0.672-0.149,1.35-0.276,2.025-0.409c0.629-0.124,1.258-0.252,1.89-0.361c0.493-0.085,0.991-0.143,1.487-0.214
		c0.217-0.031,0.433-0.065,0.65-0.1c0.54-0.088,1.079-0.187,1.621-0.263c0.372-0.052,0.749-0.066,1.122-0.11
		c0.403-0.048,0.804-0.124,1.208-0.168c0.436-0.048,0.874-0.073,1.312-0.112c0.171-0.015,0.341-0.042,0.512-0.063
		c0.078-0.01,0.156-0.025,0.234-0.027c0.314-0.008,0.631,0.019,0.935-0.091c0.553,0.049,1.094-0.099,1.644-0.102
		c0.36-0.002,0.718,0.008,1.079-0.074c0.255-0.058,0.533-0.012,0.801-0.021c0.391-0.012,0.787,0.042,1.173-0.078
		c0.101-0.031,0.219-0.013,0.329-0.013c2.679,0,5.359-0.001,8.038,0.002c0.171,0,0.342,0.038,0.513,0.056
		c0.125,0.013,0.25,0.029,0.375,0.03c0.347,0.005,0.694-0.002,1.04,0.007c0.156,0.004,0.31,0.038,0.466,0.053
		c0.172,0.016,0.344,0.029,0.516,0.036c0.376,0.015,0.756-0.037,1.125,0.085c0.072,0.024,0.156,0.008,0.235,0.01
		c0.329,0.008,0.659-0.02,0.984,0.08c0.131,0.04,0.282,0.006,0.423,0.018c0.171,0.014,0.342,0.039,0.512,0.061
		c0.047,0.006,0.094,0.029,0.139,0.024c0.46-0.047,0.905,0.084,1.36,0.109c0.42,0.023,0.838,0.099,1.256,0.155
		c0.295,0.04,0.591,0.044,0.886,0.108c0.335,0.072,0.685,0.068,1.026,0.115c0.325,0.044,0.647,0.114,0.971,0.166
		c0.247,0.04,0.496,0.07,0.744,0.107c1.037,0.155,2.066,0.354,3.099,0.534c1.02,0.178,2.025,0.415,3.036,0.626
		c0.92,0.191,1.829,0.439,2.738,0.682c0.879,0.235,1.756,0.479,2.626,0.747c1.081,0.333,2.16,0.676,3.227,1.05
		c0.86,0.301,1.702,0.65,2.55,0.983c0.878,0.346,1.742,0.723,2.587,1.145c0.38,0.19,0.777,0.344,1.154,0.539
		c1.676,0.869,3.314,1.806,4.852,2.904c0.676,0.483,1.328,0.999,1.967,1.534c0.812,0.68,1.522,1.46,2.268,2.204
		c0.265,0.264,0.474,0.584,0.705,0.882c0.599,0.772,1.131,1.589,1.551,2.472c0.432,0.909,0.787,1.847,0.949,2.85
		c0.098,0.605,0.181,1.206,0.181,1.821C100.255,28.949,100.257,35.695,100.257,42.441z M47.823,55.707
		C47.823,55.707,47.823,55.707,47.823,55.707c0.946-0.001,1.892-0.001,2.837-0.001c0.126,0,0.261,0.021,0.376-0.015
		c0.309-0.097,0.624-0.071,0.937-0.073c0.646-0.005,1.293-0.003,1.939-0.006c0.126-0.001,0.261,0.018,0.375-0.021
		c0.247-0.084,0.498-0.066,0.749-0.069c0.315-0.004,0.631-0.001,0.946-0.005c0.11-0.001,0.219-0.013,0.329-0.025
		c0.186-0.02,0.372-0.054,0.559-0.064c0.737-0.038,1.474-0.068,2.211-0.102c0.047-0.002,0.098,0,0.14-0.017
		c0.211-0.09,0.434-0.061,0.653-0.074c0.485-0.029,0.97-0.068,1.454-0.103c0.031-0.002,0.061-0.014,0.093-0.018
		c0.186-0.023,0.372-0.048,0.559-0.066c0.11-0.011,0.221-0.003,0.33-0.017c0.403-0.054,0.804-0.121,1.208-0.169
		c0.373-0.045,0.75-0.058,1.122-0.111c0.542-0.076,1.081-0.175,1.621-0.263c0.216-0.035,0.433-0.07,0.65-0.1
		c0.31-0.043,0.623-0.068,0.931-0.124c0.601-0.108,1.199-0.228,1.797-0.351c0.859-0.176,1.72-0.342,2.573-0.544
		c1.007-0.239,2.004-0.519,3.008-0.769c0.976-0.243,1.931-0.554,2.891-0.849c1.459-0.447,2.896-0.958,4.297-1.559
		c0.983-0.421,1.942-0.901,2.892-1.394c0.584-0.303,1.139-0.667,1.691-1.027c0.499-0.326,0.988-0.671,1.461-1.033
		c0.524-0.4,1.042-0.811,1.497-1.292c0.119-0.126,0.25-0.241,0.366-0.37c0.462-0.517,0.892-1.058,1.163-1.705
		c0.17-0.406,0.317-0.824,0.355-1.265c0.065-0.76-0.146-1.471-0.496-2.129c-0.347-0.653-0.81-1.234-1.339-1.754
		c-0.28-0.275-0.564-0.554-0.884-0.777c-0.404-0.282-0.848-0.493-1.37-0.287c-0.247,0.098-0.506,0.166-0.753,0.264
		c-0.307,0.122-0.602,0.272-0.91,0.392c-1.346,0.526-2.687,1.068-4.045,1.56c-1.255,0.455-2.522,0.883-3.8,1.268
		c-1.17,0.352-2.363,0.631-3.546,0.938c-0.425,0.11-0.85,0.221-1.28,0.313c-0.857,0.184-1.716,0.358-2.576,0.529
		c-0.583,0.116-1.168,0.224-1.754,0.326c-0.462,0.08-0.93,0.133-1.391,0.22c-0.569,0.108-1.141,0.194-1.717,0.257
		c-0.311,0.034-0.622,0.076-0.932,0.119c-0.372,0.051-0.742,0.119-1.114,0.158c-0.436,0.046-0.875,0.07-1.312,0.105
		c-0.047,0.004-0.092,0.018-0.139,0.024c-0.17,0.022-0.341,0.047-0.512,0.063c-0.125,0.012-0.261-0.015-0.375,0.023
		c-0.247,0.083-0.499,0.049-0.748,0.078c-0.515,0.06-1.03,0.112-1.55,0.097c-0.031-0.001-0.065,0.002-0.093,0.014
		c-0.242,0.104-0.497,0.065-0.747,0.073c-0.252,0.008-0.511-0.023-0.753,0.029c-0.235,0.051-0.466,0.063-0.702,0.065
		c-0.347,0.003-0.694-0.003-1.04,0.006c-0.156,0.004-0.31,0.037-0.466,0.053c-0.14,0.014-0.281,0.034-0.422,0.034
		c-3.137,0.002-6.273,0.002-9.41,0c-0.125,0-0.251-0.01-0.376-0.022c-0.202-0.02-0.404-0.059-0.606-0.064
		c-0.41-0.011-0.82-0.003-1.229-0.008c-0.125-0.002-0.25-0.02-0.375-0.033c-0.171-0.018-0.342-0.049-0.513-0.055
		c-0.299-0.01-0.607,0.037-0.896-0.018c-0.423-0.081-0.844-0.074-1.268-0.083c-0.063-0.001-0.131,0.005-0.187-0.017
		c-0.243-0.096-0.496-0.069-0.747-0.076c-0.094-0.002-0.196,0.012-0.282-0.018c-0.245-0.087-0.496-0.072-0.748-0.077
		c-0.11-0.002-0.228,0.01-0.328-0.025c-0.2-0.071-0.402-0.064-0.607-0.069c-0.11-0.002-0.221-0.005-0.33-0.019
		c-0.403-0.053-0.805-0.118-1.208-0.166c-0.358-0.043-0.724-0.038-1.073-0.114c-0.281-0.061-0.562-0.058-0.84-0.1
		c-0.325-0.049-0.647-0.111-0.971-0.166c-0.185-0.032-0.37-0.065-0.556-0.093c-0.511-0.076-1.024-0.137-1.533-0.225
		c-0.601-0.104-1.199-0.226-1.798-0.347c-0.829-0.167-1.66-0.323-2.484-0.515c-0.931-0.216-1.854-0.47-2.782-0.7
		c-1.342-0.333-2.664-0.733-3.975-1.167c-1-0.331-2.001-0.66-2.985-1.035c-1.144-0.438-2.269-0.926-3.403-1.391
		c-0.291-0.119-0.578-0.255-0.879-0.338c-0.31-0.085-0.633-0.204-0.959-0.043c-0.268,0.133-0.557,0.236-0.799,0.407
		c-0.593,0.419-1.116,0.914-1.533,1.519c-0.509,0.738-0.689,1.574-0.767,2.441c-0.019,0.212,0.057,0.433,0.08,0.65
		c0.063,0.602,0.241,1.171,0.537,1.696c0.294,0.52,0.629,1.016,1.06,1.437c0.303,0.297,0.595,0.604,0.938,0.86
		c0.314,0.234,0.581,0.53,0.896,0.764c0.82,0.61,1.661,1.195,2.569,1.665c0.992,0.514,1.995,1.013,3.019,1.458
		c1.383,0.601,2.812,1.093,4.242,1.572c0.848,0.284,1.706,0.54,2.563,0.799c0.495,0.15,0.994,0.291,1.496,0.418
		c1.125,0.284,2.251,0.559,3.379,0.833C29.84,53.81,30.284,53.91,30.729,54c0.445,0.09,0.893,0.164,1.339,0.245
		c0.616,0.111,1.232,0.221,1.848,0.331c0.323,0.057,0.646,0.119,0.97,0.167c0.511,0.075,1.023,0.143,1.535,0.21
		c0.311,0.041,0.624,0.063,0.933,0.113c0.479,0.078,0.958,0.157,1.444,0.172c0.063,0.002,0.131-0.002,0.187,0.021
		c0.196,0.082,0.401,0.068,0.606,0.072c0.11,0.002,0.229-0.014,0.328,0.022c0.231,0.084,0.466,0.066,0.701,0.072
		c0.126,0.003,0.261-0.021,0.376,0.015c0.325,0.101,0.655,0.073,0.984,0.08c0.095,0.002,0.194-0.016,0.283,0.008
		c0.543,0.142,1.096,0.066,1.645,0.088c0.142,0.006,0.293-0.022,0.423,0.019c0.295,0.092,0.592,0.07,0.89,0.071
		C46.089,55.709,46.956,55.707,47.823,55.707z M48.252,75.758C48.252,75.758,48.252,75.758,48.252,75.758
		c1.482-0.001,2.963,0,4.445-0.002c0.157,0,0.324,0.019,0.47-0.025c0.218-0.066,0.435-0.064,0.654-0.065
		c0.441-0.003,0.883-0.003,1.324-0.004c0.095,0,0.195,0.018,0.283-0.008c0.417-0.123,0.844-0.072,1.267-0.085
		c0.173-0.005,0.356,0.024,0.517-0.024c0.265-0.078,0.53-0.073,0.796-0.068c0.598,0.011,1.186-0.149,1.786-0.105
		c0.045,0.003,0.092-0.021,0.138-0.027c0.155-0.021,0.31-0.045,0.465-0.058c0.469-0.038,0.943-0.041,1.405-0.116
		c0.266-0.044,0.528-0.07,0.795-0.076c0.047-0.001,0.095,0.001,0.141-0.007c0.509-0.094,1.02-0.168,1.538-0.184
		c0.047-0.001,0.094-0.008,0.141-0.015c0.54-0.087,1.08-0.178,1.621-0.26c0.495-0.075,0.994-0.129,1.487-0.212
		c0.663-0.111,1.326-0.232,1.985-0.365c0.844-0.171,1.686-0.351,2.526-0.54c0.688-0.156,1.37-0.334,2.056-0.498
		c1.375-0.328,2.726-0.742,4.072-1.166c1.063-0.335,2.114-0.717,3.155-1.115c0.777-0.297,1.538-0.641,2.296-0.985
		c0.53-0.241,1.047-0.513,1.563-0.783c0.348-0.182,0.694-0.37,1.025-0.582c0.582-0.372,1.151-0.765,1.726-1.148
		c0.735-0.489,1.378-1.091,2.035-1.673c0.257-0.227,0.473-0.504,0.688-0.774c0.442-0.555,0.825-1.141,1.028-1.838
		c0.195-0.67,0.192-1.322,0.002-1.991c-0.242-0.856-0.738-1.558-1.307-2.214c-0.278-0.32-0.599-0.604-0.898-0.907
		c-0.213-0.216-0.465-0.373-0.732-0.511c-0.142-0.073-0.292-0.099-0.453-0.111c-0.475-0.037-0.896,0.133-1.317,0.309
		c-0.362,0.152-0.721,0.311-1.085,0.461c-0.538,0.221-1.075,0.445-1.617,0.652c-1.086,0.415-2.17,0.835-3.265,1.226
		c-1.153,0.412-2.329,0.757-3.51,1.083c-1.209,0.333-2.419,0.662-3.644,0.936c-1.039,0.232-2.081,0.449-3.124,0.664
		c-0.951,0.197-1.912,0.329-2.863,0.524c-0.29,0.059-0.59,0.073-0.885,0.112c-0.264,0.034-0.527,0.073-0.791,0.111
		c-0.387,0.056-0.773,0.115-1.16,0.168c-0.357,0.049-0.714,0.094-1.075,0.118c-0.404,0.027-0.804,0.14-1.208,0.156
		c-0.502,0.02-0.995,0.158-1.502,0.11c-0.046-0.004-0.098-0.003-0.14,0.015c-0.242,0.1-0.496,0.07-0.747,0.076
		c-0.11,0.003-0.228-0.019-0.329,0.013c-0.339,0.108-0.686,0.073-1.031,0.083c-0.11,0.003-0.229-0.016-0.329,0.018
		c-0.293,0.099-0.592,0.069-0.89,0.075c-0.268,0.006-0.545-0.033-0.801,0.024c-0.314,0.069-0.624,0.067-0.938,0.07
		c-0.441,0.005-0.883,0.001-1.324,0.005c-0.125,0.001-0.251,0.015-0.375,0.028c-0.171,0.018-0.341,0.058-0.512,0.058
		c-2.317,0.004-4.634,0.003-6.951,0.002c-0.11,0-0.229,0.016-0.329-0.018c-0.262-0.09-0.529-0.069-0.796-0.071
		c-0.489-0.004-0.977-0.003-1.466-0.005c-0.11,0-0.228,0.02-0.33-0.01c-0.402-0.12-0.813-0.069-1.22-0.082
		c-0.173-0.006-0.356,0.026-0.517-0.02c-0.311-0.09-0.624-0.065-0.937-0.075c-0.173-0.005-0.356,0.022-0.517-0.025
		c-0.25-0.074-0.498-0.062-0.749-0.069c-0.142-0.004-0.293,0.025-0.423-0.015c-0.473-0.147-0.977-0.008-1.445-0.172
		c-0.612-0.015-1.216-0.105-1.822-0.181c-0.543-0.068-1.09-0.106-1.631-0.194c-0.633-0.102-1.269-0.185-1.903-0.278
		c-0.217-0.032-0.433-0.069-0.649-0.102c-0.479-0.073-0.961-0.136-1.438-0.221c-0.585-0.105-1.168-0.226-1.75-0.346
		c-0.981-0.203-1.965-0.395-2.941-0.624c-0.885-0.207-1.76-0.457-2.641-0.686c-1.216-0.317-2.421-0.671-3.61-1.075
		c-1.116-0.379-2.231-0.762-3.33-1.188c-1.186-0.461-2.35-0.978-3.528-1.461c-0.201-0.082-0.42-0.139-0.635-0.161
		c-0.182-0.019-0.387-0.01-0.554,0.056c-0.589,0.234-1.118,0.577-1.579,1.013c-0.534,0.504-0.924,1.113-1.203,1.788
		c-0.199,0.481-0.288,0.999-0.31,1.514c-0.016,0.369,0.076,0.745,0.134,1.116c0.088,0.572,0.375,1.066,0.647,1.561
		c0.135,0.246,0.296,0.488,0.486,0.693c0.869,0.934,1.796,1.806,2.845,2.54c0.968,0.678,1.991,1.265,3.042,1.799
		c0.546,0.277,1.117,0.504,1.677,0.754c1.063,0.475,2.155,0.873,3.253,1.255c1.395,0.484,2.793,0.96,4.22,1.347
		c0.651,0.176,1.296,0.375,1.951,0.535c1.172,0.286,2.347,0.559,3.525,0.819c0.703,0.156,1.413,0.279,2.12,0.414
		c0.476,0.091,0.953,0.18,1.43,0.265c0.401,0.071,0.802,0.143,1.205,0.198c0.542,0.075,1.089,0.123,1.63,0.205
		c0.542,0.083,1.082,0.175,1.632,0.188c0.031,0.001,0.065,0.004,0.093,0.016c0.195,0.087,0.401,0.066,0.605,0.073
		c0.125,0.004,0.25,0.02,0.375,0.033c0.171,0.018,0.341,0.043,0.512,0.059c0.11,0.01,0.228-0.017,0.329,0.016
		c0.308,0.1,0.623,0.074,0.936,0.081c0.094,0.002,0.196-0.016,0.282,0.012c0.37,0.121,0.749,0.069,1.125,0.083
		c0.157,0.006,0.323-0.015,0.469,0.03c0.218,0.066,0.435,0.062,0.655,0.062C45.289,75.759,46.77,75.758,48.252,75.758z"/>
</g>
</svg>
