<?xml version="1.0" encoding="utf-8"?>
<!-- Generator: Adobe Illustrator 19.2.1, SVG Export Plug-In . SVG Version: 6.00 Build 0)  -->
<svg version="1.1" id="Ebene_1" xmlns="http://www.w3.org/2000/svg" xmlns:xlink="http://www.w3.org/1999/xlink" x="0px" y="0px"
	 viewBox="0 0 32.307 26.639" style="enable-background:new 0 0 32.307 26.639;" xml:space="preserve">
<style type="text/css">
	.st0{fill-rule:evenodd;clip-rule:evenodd;fill:#f22613;}
	.st1{fill:#f22613;}
</style>
<g>
	<path class="st1" d="M0,26.639c-0.019-0.301,0.043-0.595,0.079-0.89c0.072-0.581,0.202-1.151,0.355-1.716
		c0.198-0.733,0.481-1.435,0.759-2.139c0.11-0.278,0.24-0.548,0.37-0.817c0.352-0.732,0.713-1.46,1.062-2.193
		c0.271-0.569,0.542-1.138,0.791-1.716c0.413-0.961,0.775-1.942,0.998-2.967c0.072-0.331,0.151-0.665,0.154-1.008
		c0.001-0.118,0.041-0.223,0.09-0.324c0.09,0.013,0.102,0.085,0.129,0.139c0.241,0.477,0.44,0.971,0.625,1.473
		c0.185,0.502,0.302,1.021,0.423,1.54c0.046,0.196,0.054,0.4,0.083,0.6c0.036,0.252,0.078,0.504,0.113,0.756
		c0.01,0.074,0.011,0.149,0.013,0.224c0.006,0.192,0.01,0.38,0.048,0.572c0.038,0.196,0.013,0.405,0.019,0.608
		c0.002,0.06-0.019,0.131,0.065,0.174c0.17-0.126,0.275-0.315,0.4-0.481c0.559-0.74,1.107-1.489,1.6-2.276
		c0.351-0.561,0.697-1.124,1.037-1.692c0.324-0.541,0.622-1.096,0.9-1.662c0.099-0.201,0.226-0.388,0.32-0.591
		c0.287-0.62,0.563-1.244,0.844-1.867c0.395-0.877,0.726-1.778,1.021-2.692c0.278-0.862,0.515-1.735,0.688-2.625
		c0.087-0.448,0.183-0.896,0.239-1.349c0.041-0.327,0.076-0.654,0.131-0.979c0.016-0.094,0.005-0.192,0.006-0.288
		c0.001-0.364,0.003-0.728,0.001-1.091c-0.001-0.213,0.017-0.426-0.051-0.636c-0.025-0.078-0.006-0.17-0.013-0.255
		c-0.012-0.146-0.028-0.292-0.043-0.433c0.054-0.06,0.107-0.029,0.147-0.001c0.396,0.27,0.793,0.539,1.184,0.818
		C14.797,1,14.998,1.16,15.19,1.327c0.281,0.245,0.551,0.504,0.828,0.754c0.142,0.129,0.289,0.252,0.432,0.38
		c0.071,0.064,0.14,0.132,0.205,0.204c0.136,0.15,0.261,0.31,0.403,0.454c0.442,0.449,0.843,0.932,1.238,1.423
		c0.548,0.682,1.063,1.388,1.536,2.124c0.248,0.386,0.473,0.786,0.713,1.177c0.387,0.629,0.714,1.29,1.036,1.953
		c0.331,0.682,0.633,1.377,0.899,2.087c0.236,0.629,0.461,1.263,0.674,1.9c0.135,0.404,0.239,0.818,0.359,1.227
		c0.047,0.162,0.101,0.322,0.16,0.51c0.065-0.039,0.113-0.058,0.148-0.091c0.33-0.3,0.548-0.673,0.731-1.076
		c0.2-0.441,0.328-0.9,0.411-1.373c0.044-0.251,0.07-0.506,0.084-0.76c0.014-0.245,0.006-0.492,0.001-0.738
		c-0.002-0.095-0.022-0.19-0.035-0.284c-0.006-0.042-0.022-0.084-0.022-0.126c-0.002-0.474-0.127-0.925-0.243-1.379
		c-0.066-0.26-0.14-0.514-0.254-0.757c-0.012-0.026-0.008-0.061-0.011-0.092c0.065-0.055,0.095,0.012,0.136,0.032
		c0.038,0.019,0.08,0.037,0.109,0.067c0.389,0.396,0.777,0.794,1.164,1.192c0.044,0.046,0.079,0.101,0.124,0.146
		c0.411,0.406,0.755,0.868,1.113,1.319c0.584,0.736,1.113,1.511,1.613,2.305c0.284,0.451,0.551,0.913,0.812,1.379
		c0.23,0.41,0.443,0.829,0.657,1.247c0.282,0.552,0.517,1.125,0.742,1.702c0.139,0.358,0.28,0.716,0.397,1.081
		c0.26,0.811,0.497,1.629,0.644,2.471c0.075,0.429,0.155,0.857,0.189,1.292c0.017,0.211,0.068,0.419,0.099,0.629
		c0.013,0.084,0.02,0.17,0.02,0.255c0.002,0.556,0.008,1.113-0.002,1.669c-0.004,0.222,0.035,0.787,0.006,1.008H0z"/>
</g>
</svg>
